<svg width="1440" height="651" viewBox="0 0 1440 651" fill="none" xmlns="http://www.w3.org/2000/svg">
<g clip-path="url(#clip0_7355_40083)">
<rect width="1440" height="650" transform="translate(0 0.562378)" fill="white"/>
<g clip-path="url(#clip1_7355_40083)">
<mask id="mask0_7355_40083" style="mask-type:luminance" maskUnits="userSpaceOnUse" x="0" y="-6" width="1440" height="664">
<path d="M1418.18 -5.74756H21.8182C9.76833 -5.74756 0 2.98941 0 13.767V638.233C0 649.011 9.76833 657.748 21.8182 657.748H1418.18C1430.23 657.748 1440 649.011 1440 638.233V13.767C1440 2.98941 1430.23 -5.74756 1418.18 -5.74756Z" fill="white"/>
</mask>
<g mask="url(#mask0_7355_40083)">
<path d="M1418.18 -5.74756H21.8182C9.76833 -5.74756 0 2.98941 0 13.767V638.233C0 649.011 9.76833 657.748 21.8182 657.748H1418.18C1430.23 657.748 1440 649.011 1440 638.233V13.767C1440 2.98941 1430.23 -5.74756 1418.18 -5.74756Z" fill="#EFEFEF"/>
<path opacity="0.5" d="M1191.31 419.009C1249.98 419.669 1462.44 546.483 1532.2 561.014C1601.97 575.546 1579.77 659.426 1579.77 659.426H455.612C455.612 659.426 850.414 465.904 896.4 475.812C942.378 485.72 936.036 508.175 975.673 508.836C1015.32 509.497 1132.65 418.349 1191.31 419.009Z" fill="#D9D9D9"/>
<path d="M215.077 327.907C177.401 328.817 40.952 503.685 -3.85212 523.722C-48.6563 543.76 -34.4008 659.426 -34.4008 659.426H687.558C687.558 659.426 434.007 392.573 404.477 406.235C374.947 419.896 379.021 450.861 353.564 451.772C328.106 452.683 252.754 326.998 215.077 327.907Z" fill="#D9D9D9"/>
<path d="M1207.32 483.726C1169.64 484.208 1033.19 576.886 988.393 587.506C943.585 598.125 957.84 659.426 957.84 659.426H1679.8C1679.8 659.426 1426.25 517.998 1396.72 525.239C1367.19 532.479 1371.27 548.89 1345.81 549.373C1320.35 549.856 1245 483.244 1207.32 483.726Z" fill="#D9D9D9"/>
</g>
</g>
</g>
<defs>
<clipPath id="clip0_7355_40083">
<rect width="1440" height="650" fill="white" transform="translate(0 0.562378)"/>
</clipPath>
<clipPath id="clip1_7355_40083">
<rect width="1440" height="650" fill="white" transform="translate(0 1)"/>
</clipPath>
</defs>
</svg>
